<?xml version="1.0" encoding="UTF-8"?>
<svg id="Ebene_1" xmlns="http://www.w3.org/2000/svg" version="1.1" viewBox="0 0 410.2 405.2">
  <!-- Generator: Adobe Illustrator 29.8.5, SVG Export Plug-In . SVG Version: 2.1.1 Build 2)  -->
  <g id="Getränke">
    <path d="M131.39,90.13c-3.76,45.81,5.49,101.44,72.64,101.44s77.92-55.31,75.57-101.03c-86.89,10.83-129.56,4.38-148.21-.41Z" fill="#f24b00"/>
    <path d="M195.91,96.45c-33.21.07-53.26-3.42-64.52-6.31-3.76,45.81,5.49,101.44,72.64,101.44,16.99,0,30.35-3.57,40.83-9.63-40.2-10.77-49.69-49.23-48.96-85.5h0Z" fill="#e94900"/>
    <path d="M173.39,95.89c-20.16-1.09-33.56-3.59-42-5.76-3.76,45.81,5.49,101.44,72.64,101.44,11.44,0,21.22-1.65,29.61-4.56-51.29-6.31-61.76-50.69-60.25-91.12Z" fill="#db4400"/>
    <path d="M215.57,182.71c-61.75,0-74.53-47.04-73.27-90.22-4.3-.77-7.92-1.58-10.91-2.35-3.76,45.81,5.49,101.44,72.64,101.44,24.28,0,41.16-7.29,52.76-18.74-10.54,6.2-24.02,9.88-41.22,9.88h0Z" fill="#cf4000"/>
    <path d="M279.55,90.13c0,3.96-33.16,7.18-74.08,7.18s-74.07-3.21-74.07-7.18,33.17-7.18,74.07-7.18,74.08,3.21,74.08,7.18Z" fill="#ff6e00"/>
  </g>
</svg>